<?xml version="1.0" encoding="utf-8"?>
<!-- Generator: Adobe Illustrator 24.0.1, SVG Export Plug-In . SVG Version: 6.00 Build 0)  -->
<svg version="1.1" id="Halo_Service_Desk" xmlns="http://www.w3.org/2000/svg" xmlns:xlink="http://www.w3.org/1999/xlink" x="0px"
	 y="0px" viewBox="0 0 421.6 142" style="enable-background:new 0 0 421.6 142;" xml:space="preserve">
<style type="text/css">
	.st0{display:none;}
	.st1{fill:#6E6E6E;}
	.st2{fill:#7F56C6;}
</style>
<g id="Guides" class="st0">
</g>
<g>
	<path class="st1" d="M188.9,28.1c-1.5-1.2-2.9-2.1-4.4-2.7c-1.5-0.6-2.9-0.9-4.3-0.9c-1.7,0-3.2,0.4-4.3,1.2
		c-1.1,0.8-1.7,1.9-1.7,3.2c0,0.9,0.3,1.7,0.8,2.3c0.6,0.6,1.3,1.1,2.2,1.5c0.9,0.4,1.9,0.8,3,1.1c1.1,0.3,2.2,0.7,3.3,1
		c4.4,1.5,7.6,3.4,9.7,5.9c2,2.5,3.1,5.7,3.1,9.6c0,2.7-0.4,5.1-1.3,7.2c-0.9,2.2-2.2,4-3.9,5.5c-1.7,1.5-3.8,2.7-6.3,3.6
		c-2.5,0.8-5.3,1.3-8.5,1.3c-6.6,0-12.6-2-18.3-5.9l5.8-10.9c2,1.8,4,3.1,6,4c2,0.9,3.9,1.3,5.9,1.3c2.2,0,3.8-0.5,4.9-1.5
		c1.1-1,1.6-2.2,1.6-3.4c0-0.8-0.1-1.5-0.4-2c-0.3-0.6-0.7-1.1-1.4-1.6c-0.6-0.5-1.5-0.9-2.5-1.3c-1-0.4-2.3-0.9-3.8-1.4
		c-1.7-0.6-3.5-1.2-5.1-1.8c-1.7-0.7-3.2-1.5-4.5-2.7c-1.3-1.1-2.4-2.5-3.2-4.2c-0.8-1.7-1.2-3.8-1.2-6.4c0-2.6,0.4-4.9,1.3-7
		c0.8-2.1,2-3.9,3.6-5.4c1.5-1.5,3.4-2.7,5.6-3.5c2.2-0.8,4.7-1.2,7.5-1.2c2.6,0,5.3,0.4,8.1,1.1c2.8,0.7,5.5,1.8,8.1,3.1
		L188.9,28.1z"/>
	<path class="st1" d="M229.8,26.3h-16V35h15.2v11.4h-15.2v9h16v11.4h-29.5V14.9h29.5V26.3z"/>
	<path class="st1" d="M279.6,66.8h-16.8l-12.9-20v20h-13.5V14.9h21c2.9,0,5.4,0.4,7.6,1.3c2.2,0.9,3.9,2,5.3,3.5
		c1.4,1.5,2.5,3.2,3.2,5.1c0.7,1.9,1.1,4,1.1,6.2c0,3.9-1,7.2-2.9,9.6c-1.9,2.5-4.7,4.1-8.4,5L279.6,66.8z M249.9,38.1h2.5
		c2.7,0,4.7-0.6,6.1-1.7c1.4-1.1,2.1-2.7,2.1-4.8c0-2.1-0.7-3.6-2.1-4.8c-1.4-1.1-3.5-1.7-6.1-1.7h-2.5V38.1z"/>
	<path class="st1" d="M287.8,14.9l12.5,31.6L313,14.9h14.7l-21.9,51.9H295l-21.8-51.9H287.8z"/>
	<path class="st1" d="M344,14.9v51.9h-13.5V14.9H344z"/>
	<path class="st1" d="M387.1,32.2c-3.1-3.8-7-5.7-11.6-5.7c-2,0-3.9,0.4-5.6,1.1c-1.7,0.7-3.2,1.7-4.4,3c-1.2,1.3-2.2,2.8-2.9,4.5
		c-0.7,1.7-1.1,3.6-1.1,5.6c0,2.1,0.4,4,1.1,5.7c0.7,1.7,1.7,3.3,3,4.5c1.3,1.3,2.7,2.3,4.4,3c1.7,0.7,3.5,1.1,5.5,1.1
		c4.3,0,8.2-1.8,11.6-5.5v16l-1.4,0.5c-2.1,0.7-4,1.3-5.8,1.6s-3.6,0.5-5.3,0.5c-3.6,0-7-0.7-10.3-2c-3.3-1.4-6.2-3.3-8.7-5.7
		c-2.5-2.5-4.5-5.4-6-8.7c-1.5-3.4-2.3-7.1-2.3-11.1c0-4,0.7-7.7,2.2-11c1.5-3.3,3.5-6.2,6-8.6c2.5-2.4,5.4-4.3,8.7-5.6
		c3.3-1.4,6.8-2,10.4-2c2.1,0,4.1,0.2,6.1,0.7c2,0.4,4.1,1.1,6.3,2V32.2z"/>
	<path class="st1" d="M421.6,26.3h-16V35h15.2v11.4h-15.2v9h16v11.4H392V14.9h29.5V26.3z"/>
	<path class="st1" d="M161.4,74.5h20c3.5,0,6.9,0.7,10,2.1c3.1,1.4,5.8,3.3,8.1,5.7c2.3,2.4,4.1,5.1,5.5,8.3c1.3,3.1,2,6.4,2,9.9
		c0,3.4-0.7,6.7-2,9.8c-1.3,3.1-3.1,5.9-5.4,8.3c-2.3,2.4-5,4.3-8.1,5.7c-3.1,1.4-6.4,2.1-10,2.1h-20V74.5z M174.9,115h3.1
		c2.3,0,4.4-0.4,6.3-1.1c1.8-0.7,3.4-1.7,4.6-3c1.3-1.3,2.2-2.8,2.9-4.6c0.7-1.8,1-3.7,1-5.8c0-2.1-0.3-4-1-5.8s-1.7-3.3-2.9-4.6
		c-1.3-1.3-2.8-2.3-4.6-3c-1.8-0.7-3.9-1.1-6.2-1.1h-3.1V115z"/>
	<path class="st1" d="M240.4,85.9h-16v8.7h15.2V106h-15.2v9h16v11.4h-29.5V74.5h29.5V85.9z"/>
	<path class="st1" d="M274,87.8c-1.5-1.2-2.9-2.1-4.4-2.7c-1.5-0.6-2.9-0.9-4.3-0.9c-1.7,0-3.2,0.4-4.3,1.2
		c-1.1,0.8-1.7,1.9-1.7,3.2c0,0.9,0.3,1.7,0.8,2.3c0.6,0.6,1.3,1.1,2.2,1.5c0.9,0.4,1.9,0.8,3,1.1c1.1,0.3,2.2,0.7,3.3,1
		c4.4,1.5,7.6,3.4,9.7,5.9c2,2.5,3.1,5.7,3.1,9.6c0,2.7-0.4,5.1-1.3,7.2c-0.9,2.2-2.2,4-3.9,5.5c-1.7,1.5-3.8,2.7-6.3,3.6
		c-2.5,0.8-5.3,1.3-8.5,1.3c-6.6,0-12.6-2-18.3-5.9l5.8-10.9c2,1.8,4,3.1,6,4c2,0.9,3.9,1.3,5.9,1.3c2.2,0,3.8-0.5,4.9-1.5
		c1.1-1,1.6-2.2,1.6-3.4c0-0.8-0.1-1.5-0.4-2c-0.3-0.6-0.7-1.1-1.4-1.6c-0.6-0.5-1.5-0.9-2.5-1.3c-1-0.4-2.3-0.9-3.8-1.4
		c-1.7-0.6-3.5-1.2-5.1-1.8c-1.7-0.7-3.2-1.5-4.5-2.7c-1.3-1.1-2.4-2.5-3.2-4.2c-0.8-1.7-1.2-3.8-1.2-6.4c0-2.6,0.4-4.9,1.3-7
		c0.8-2.1,2-3.9,3.6-5.4c1.5-1.5,3.4-2.7,5.6-3.5c2.2-0.8,4.7-1.2,7.5-1.2c2.6,0,5.3,0.4,8.1,1.1c2.8,0.7,5.5,1.8,8.1,3.1L274,87.8z
		"/>
	<path class="st1" d="M298.8,95.9l16.5-21.4h16.7l-20.6,24.6l22.5,27.3h-17.5l-17.6-22.5v22.5h-13.5V74.5h13.5V95.9z"/>
</g>
<path class="st2" d="M71,0C31.8,0,0,31.8,0,71c0,39.2,31.8,71,71,71s71-31.8,71-71C142,31.8,110.2,0,71,0z M71,107.8
	c-4.7,0-9.2-0.9-13.4-2.5l-13.1,6.3l0.2-14.7c-6.7-6.7-10.9-16-10.9-26.3c0-20.5,16.6-37.1,37.1-37.1s37.1,16.6,37.1,37.1
	C108.1,91.1,91.5,107.8,71,107.8z"/>
</svg>
